# Blender 4.3.2
# www.blender.org
mtllib hole2.mtl
o Cylinder
v 0.000000 -0.500000 -0.600000
v 0.000000 -0.300000 -0.500000
v 0.000000 0.500000 -0.600000
v 0.000000 0.500000 -0.500000
v 0.117054 -0.500000 -0.588471
v 0.049009 -0.300000 -0.497592
v 0.117054 0.500000 -0.588471
v 0.049009 0.500000 -0.497592
v 0.229610 -0.500000 -0.554328
v 0.097545 -0.300000 -0.490393
v 0.229610 0.500000 -0.554328
v 0.097545 0.500000 -0.490393
v 0.333342 -0.500000 -0.498882
v 0.145142 -0.300000 -0.478470
v 0.333342 0.500000 -0.498882
v 0.145142 0.500000 -0.478470
v 0.424264 -0.500000 -0.424264
v 0.191342 -0.300000 -0.461940
v 0.424264 0.500000 -0.424264
v 0.191342 0.500000 -0.461940
v 0.498882 -0.500000 -0.333342
v 0.235698 -0.300000 -0.440961
v 0.498882 0.500000 -0.333342
v 0.235698 0.500000 -0.440961
v 0.277785 -0.300000 -0.415735
v 0.554328 -0.500000 -0.229610
v 0.554328 0.500000 -0.229610
v 0.277785 0.500000 -0.415735
v 0.317197 -0.300000 -0.386505
v 0.588471 -0.500000 -0.117054
v 0.588471 0.500000 -0.117054
v 0.317197 0.500000 -0.386505
v 0.353553 -0.300000 -0.353553
v 0.600000 -0.500000 0.000000
v 0.600000 0.500000 0.000000
v 0.353553 0.500000 -0.353553
v 0.588471 -0.500000 0.117054
v 0.386505 -0.300000 -0.317197
v 0.588471 0.500000 0.117054
v 0.386505 0.500000 -0.317197
v 0.554328 -0.500000 0.229610
v 0.415735 -0.300000 -0.277785
v 0.554328 0.500000 0.229610
v 0.415735 0.500000 -0.277785
v 0.498882 -0.500000 0.333342
v 0.440961 -0.300000 -0.235698
v 0.440961 0.500000 -0.235698
v 0.498882 0.500000 0.333342
v 0.424264 -0.500000 0.424264
v 0.461940 -0.300000 -0.191342
v 0.461940 0.500000 -0.191342
v 0.424264 0.500000 0.424264
v 0.478470 -0.300000 -0.145142
v 0.333342 -0.500000 0.498882
v 0.333342 0.500000 0.498882
v 0.478470 0.500000 -0.145142
v 0.229610 -0.500000 0.554328
v 0.490393 -0.300000 -0.097545
v 0.490393 0.500000 -0.097545
v 0.229610 0.500000 0.554328
v 0.117054 -0.500000 0.588471
v 0.497592 -0.300000 -0.049009
v 0.497592 0.500000 -0.049009
v 0.117054 0.500000 0.588471
v 0.000000 -0.500000 0.600000
v 0.500000 -0.300000 0.000000
v 0.500000 0.500000 0.000000
v 0.000000 0.500000 0.600000
v 0.497592 -0.300000 0.049009
v -0.117054 -0.500000 0.588471
v 0.497592 0.500000 0.049009
v -0.117054 0.500000 0.588471
v 0.490393 -0.300000 0.097545
v -0.229610 -0.500000 0.554328
v 0.490393 0.500000 0.097545
v -0.229610 0.500000 0.554328
v 0.478470 -0.300000 0.145142
v -0.333342 -0.500000 0.498882
v 0.478470 0.500000 0.145142
v -0.333342 0.500000 0.498882
v 0.461940 -0.300000 0.191342
v -0.424264 -0.500000 0.424264
v 0.461940 0.500000 0.191342
v -0.424264 0.500000 0.424264
v 0.440961 -0.300000 0.235698
v -0.498882 -0.500000 0.333342
v 0.440961 0.500000 0.235698
v -0.498882 0.500000 0.333342
v 0.415735 -0.300000 0.277785
v -0.554328 -0.500000 0.229610
v -0.554328 0.500000 0.229610
v 0.415735 0.500000 0.277785
v -0.588471 -0.500000 0.117054
v 0.386505 -0.300000 0.317197
v 0.386505 0.500000 0.317197
v -0.588471 0.500000 0.117054
v 0.353553 -0.300000 0.353553
v -0.600000 -0.500000 0.000000
v 0.353553 0.500000 0.353553
v -0.600000 0.500000 0.000000
v -0.588471 -0.500000 -0.117054
v 0.317197 -0.300000 0.386505
v -0.588471 0.500000 -0.117054
v 0.317197 0.500000 0.386505
v -0.554328 -0.500000 -0.229610
v 0.277785 -0.300000 0.415735
v 0.277785 0.500000 0.415735
v -0.554328 0.500000 -0.229610
v -0.498882 -0.500000 -0.333342
v 0.235698 -0.300000 0.440961
v 0.235698 0.500000 0.440961
v -0.498882 0.500000 -0.333342
v -0.424264 -0.500000 -0.424264
v 0.191342 -0.300000 0.461940
v 0.191342 0.500000 0.461940
v -0.424264 0.500000 -0.424264
v -0.333342 -0.500000 -0.498882
v 0.145142 -0.300000 0.478470
v 0.145142 0.500000 0.478470
v -0.333342 0.500000 -0.498882
v -0.229610 -0.500000 -0.554328
v 0.097545 -0.300000 0.490393
v 0.097545 0.500000 0.490393
v -0.229610 0.500000 -0.554328
v -0.117054 -0.500000 -0.588471
v 0.049009 -0.300000 0.497592
v -0.117054 0.500000 -0.588471
v 0.049009 0.500000 0.497592
v 0.000000 -0.300000 0.500000
v 0.000000 0.500000 0.500000
v -0.049009 -0.300000 0.497592
v -0.049009 0.500000 0.497592
v -0.097545 -0.300000 0.490393
v -0.097545 0.500000 0.490393
v -0.145142 -0.300000 0.478470
v -0.145142 0.500000 0.478470
v -0.191342 -0.300000 0.461940
v -0.191342 0.500000 0.461940
v -0.235698 -0.300000 0.440961
v -0.235698 0.500000 0.440961
v -0.277785 -0.300000 0.415735
v -0.277785 0.500000 0.415735
v -0.317197 -0.300000 0.386505
v -0.317197 0.500000 0.386505
v -0.353553 -0.300000 0.353553
v -0.353553 0.500000 0.353553
v -0.386505 -0.300000 0.317197
v -0.386505 0.500000 0.317197
v -0.415735 -0.300000 0.277785
v -0.415735 0.500000 0.277785
v -0.440961 -0.300000 0.235698
v -0.440961 0.500000 0.235698
v -0.461940 -0.300000 0.191342
v -0.461940 0.500000 0.191342
v -0.478470 -0.300000 0.145142
v -0.478470 0.500000 0.145142
v -0.490393 -0.300000 0.097545
v -0.490393 0.500000 0.097545
v -0.497592 -0.300000 0.049009
v -0.497592 0.500000 0.049009
v -0.500000 -0.300000 0.000000
v -0.500000 0.500000 0.000000
v -0.497592 -0.300000 -0.049009
v -0.497592 0.500000 -0.049009
v -0.490393 -0.300000 -0.097545
v -0.490393 0.500000 -0.097545
v -0.478470 -0.300000 -0.145142
v -0.478470 0.500000 -0.145142
v -0.461940 -0.300000 -0.191342
v -0.461940 0.500000 -0.191342
v -0.440961 -0.300000 -0.235698
v -0.440961 0.500000 -0.235698
v -0.415735 -0.300000 -0.277785
v -0.415735 0.500000 -0.277785
v -0.386505 -0.300000 -0.317197
v -0.386505 0.500000 -0.317197
v -0.353553 -0.300000 -0.353553
v -0.353553 0.500000 -0.353553
v -0.317197 -0.300000 -0.386505
v -0.317197 0.500000 -0.386505
v -0.277785 -0.300000 -0.415735
v -0.277785 0.500000 -0.415735
v -0.235698 -0.300000 -0.440961
v -0.235698 0.500000 -0.440961
v -0.191342 -0.300000 -0.461940
v -0.191342 0.500000 -0.461940
v -0.145142 -0.300000 -0.478470
v -0.145142 0.500000 -0.478470
v -0.097545 -0.300000 -0.490393
v -0.097545 0.500000 -0.490393
v -0.049009 -0.300000 -0.497592
v -0.049009 0.500000 -0.497592
vn 0.0980 -0.0000 -0.9952
vn 0.2903 -0.0000 -0.9569
vn 0.4714 -0.0000 -0.8819
vn 0.6344 -0.0000 -0.7730
vn 0.7730 -0.0000 -0.6344
vn 0.8819 -0.0000 -0.4714
vn 0.9569 -0.0000 -0.2903
vn 0.9952 -0.0000 -0.0980
vn 0.9952 -0.0000 0.0980
vn 0.9569 -0.0000 0.2903
vn 0.8819 -0.0000 0.4714
vn 0.7730 -0.0000 0.6344
vn 0.6344 -0.0000 0.7730
vn 0.4714 -0.0000 0.8819
vn 0.2903 -0.0000 0.9569
vn 0.0980 -0.0000 0.9952
vn -0.0980 -0.0000 0.9952
vn -0.2903 -0.0000 0.9569
vn -0.4714 -0.0000 0.8819
vn -0.6344 -0.0000 0.7730
vn -0.7730 -0.0000 0.6344
vn -0.8819 -0.0000 0.4714
vn -0.9569 -0.0000 0.2903
vn -0.9952 -0.0000 0.0980
vn -0.9952 -0.0000 -0.0980
vn -0.9569 -0.0000 -0.2903
vn -0.8819 -0.0000 -0.4714
vn -0.7730 -0.0000 -0.6344
vn -0.6344 -0.0000 -0.7730
vn -0.4714 -0.0000 -0.8819
vn -0.0000 1.0000 -0.0000
vn -0.2903 -0.0000 -0.9569
vn -0.0980 -0.0000 -0.9952
vn -0.0000 -1.0000 -0.0000
vn -0.0491 -0.0000 0.9988
vn -0.1467 -0.0000 0.9892
vn -0.2430 -0.0000 0.9700
vn -0.3369 -0.0000 0.9415
vn -0.4276 -0.0000 0.9040
vn -0.5141 -0.0000 0.8577
vn -0.5957 -0.0000 0.8032
vn -0.6716 -0.0000 0.7410
vn -0.7410 -0.0000 0.6716
vn -0.8032 -0.0000 0.5957
vn -0.8577 -0.0000 0.5141
vn -0.9040 -0.0000 0.4276
vn -0.9415 -0.0000 0.3369
vn -0.9700 -0.0000 0.2430
vn -0.9892 -0.0000 0.1467
vn -0.9988 -0.0000 0.0491
vn -0.9988 -0.0000 -0.0491
vn -0.9892 -0.0000 -0.1467
vn -0.9700 -0.0000 -0.2430
vn -0.9415 -0.0000 -0.3369
vn -0.9040 -0.0000 -0.4276
vn -0.8577 -0.0000 -0.5141
vn -0.8032 -0.0000 -0.5957
vn -0.7410 -0.0000 -0.6716
vn -0.6716 -0.0000 -0.7410
vn -0.5957 -0.0000 -0.8032
vn -0.5141 -0.0000 -0.8577
vn -0.4276 -0.0000 -0.9040
vn -0.3369 -0.0000 -0.9415
vn -0.2430 -0.0000 -0.9700
vn -0.1467 -0.0000 -0.9892
vn -0.0491 -0.0000 -0.9988
vn 0.0491 -0.0000 -0.9988
vn 0.1467 -0.0000 -0.9892
vn 0.2430 -0.0000 -0.9700
vn 0.3369 -0.0000 -0.9415
vn 0.4276 -0.0000 -0.9040
vn 0.5141 -0.0000 -0.8577
vn 0.5957 -0.0000 -0.8032
vn 0.6716 -0.0000 -0.7410
vn 0.7410 -0.0000 -0.6716
vn 0.8032 -0.0000 -0.5957
vn 0.8577 -0.0000 -0.5141
vn 0.9040 -0.0000 -0.4276
vn 0.9415 -0.0000 -0.3369
vn 0.9700 -0.0000 -0.2430
vn 0.9892 -0.0000 -0.1467
vn 0.9988 -0.0000 -0.0491
vn 0.9988 -0.0000 0.0491
vn 0.9892 -0.0000 0.1467
vn 0.9700 -0.0000 0.2430
vn 0.9415 -0.0000 0.3369
vn 0.9040 -0.0000 0.4276
vn 0.8577 -0.0000 0.5141
vn 0.8032 -0.0000 0.5957
vn 0.7410 -0.0000 0.6716
vn 0.6716 -0.0000 0.7410
vn 0.5957 -0.0000 0.8032
vn 0.5141 -0.0000 0.8577
vn 0.4276 -0.0000 0.9040
vn 0.3369 -0.0000 0.9415
vn 0.2430 -0.0000 0.9700
vn 0.1467 -0.0000 0.9892
vn 0.0491 -0.0000 0.9988
vt 1.000000 0.500000
vt 1.000000 1.000000
vt 0.968750 1.000000
vt 0.968750 0.500000
vt 0.937500 1.000000
vt 0.937500 0.500000
vt 0.906250 1.000000
vt 0.906250 0.500000
vt 0.875000 1.000000
vt 0.875000 0.500000
vt 0.843750 1.000000
vt 0.843750 0.500000
vt 0.812500 1.000000
vt 0.812500 0.500000
vt 0.781250 1.000000
vt 0.781250 0.500000
vt 0.750000 1.000000
vt 0.750000 0.500000
vt 0.718750 1.000000
vt 0.718750 0.500000
vt 0.687500 1.000000
vt 0.687500 0.500000
vt 0.656250 1.000000
vt 0.656250 0.500000
vt 0.625000 1.000000
vt 0.625000 0.500000
vt 0.593750 1.000000
vt 0.593750 0.500000
vt 0.562500 1.000000
vt 0.562500 0.500000
vt 0.531250 1.000000
vt 0.531250 0.500000
vt 0.500000 1.000000
vt 0.500000 0.500000
vt 0.468750 1.000000
vt 0.468750 0.500000
vt 0.437500 1.000000
vt 0.437500 0.500000
vt 0.406250 1.000000
vt 0.406250 0.500000
vt 0.375000 1.000000
vt 0.375000 0.500000
vt 0.343750 1.000000
vt 0.343750 0.500000
vt 0.312500 1.000000
vt 0.312500 0.500000
vt 0.281250 1.000000
vt 0.281250 0.500000
vt 0.250000 1.000000
vt 0.250000 0.500000
vt 0.218750 1.000000
vt 0.218750 0.500000
vt 0.187500 1.000000
vt 0.187500 0.500000
vt 0.156250 1.000000
vt 0.156250 0.500000
vt 0.125000 1.000000
vt 0.125000 0.500000
vt 0.093750 1.000000
vt 0.093750 0.500000
vt 0.062500 1.000000
vt 0.062500 0.500000
vt 0.173463 0.434776
vt 0.158156 0.471731
vt 0.116663 0.449553
vt 0.080294 0.419706
vt 0.050447 0.383337
vt 0.028269 0.341844
vt 0.014612 0.296822
vt 0.010000 0.250000
vt 0.014612 0.203178
vt 0.028269 0.158156
vt 0.050447 0.116663
vt 0.080294 0.080294
vt 0.116663 0.050447
vt 0.158156 0.028269
vt 0.203178 0.014612
vt 0.250000 0.010000
vt 0.296822 0.014612
vt 0.341844 0.028269
vt 0.383337 0.050447
vt 0.419706 0.080294
vt 0.449553 0.116663
vt 0.471731 0.158156
vt 0.485388 0.203178
vt 0.490000 0.250000
vt 0.485388 0.296822
vt 0.471731 0.341844
vt 0.449553 0.383337
vt 0.419706 0.419706
vt 0.383337 0.449553
vt 0.341844 0.471731
vt 0.326537 0.434776
vt 0.344279 0.426384
vt 0.361114 0.416294
vt 0.376879 0.404602
vt 0.391421 0.391421
vt 0.404602 0.376879
vt 0.416294 0.361114
vt 0.426384 0.344279
vt 0.434776 0.326537
vt 0.441388 0.308057
vt 0.446157 0.289018
vt 0.449037 0.269603
vt 0.450000 0.250000
vt 0.449037 0.230397
vt 0.446157 0.210982
vt 0.441388 0.191943
vt 0.434776 0.173463
vt 0.426384 0.155721
vt 0.416294 0.138886
vt 0.404602 0.123121
vt 0.391421 0.108579
vt 0.376879 0.095398
vt 0.361114 0.083706
vt 0.344279 0.073616
vt 0.326537 0.065224
vt 0.308057 0.058612
vt 0.289018 0.053843
vt 0.269603 0.050963
vt 0.250000 0.050000
vt 0.230397 0.050963
vt 0.210982 0.053843
vt 0.191943 0.058612
vt 0.173463 0.065224
vt 0.155721 0.073616
vt 0.138886 0.083706
vt 0.123121 0.095398
vt 0.108579 0.108579
vt 0.095398 0.123121
vt 0.083706 0.138886
vt 0.073616 0.155721
vt 0.065224 0.173463
vt 0.058612 0.191943
vt 0.053843 0.210982
vt 0.050963 0.230397
vt 0.050000 0.250000
vt 0.050963 0.269603
vt 0.053843 0.289018
vt 0.058612 0.308057
vt 0.065224 0.326537
vt 0.073616 0.344279
vt 0.083706 0.361114
vt 0.095398 0.376879
vt 0.108579 0.391421
vt 0.123121 0.404602
vt 0.138886 0.416294
vt 0.155721 0.426384
vt 0.308057 0.441388
vt 0.296822 0.485388
vt 0.250000 0.490000
vt 0.203178 0.485388
vt 0.191943 0.441388
vt 0.210982 0.446157
vt 0.230397 0.449037
vt 0.250000 0.450000
vt 0.269603 0.449037
vt 0.289018 0.446157
vt 0.031250 1.000000
vt 0.031250 0.500000
vt 0.000000 1.000000
vt 0.000000 0.500000
vt 0.703178 0.485388
vt 0.750000 0.490000
vt 0.796822 0.485388
vt 0.841844 0.471731
vt 0.883337 0.449553
vt 0.919706 0.419706
vt 0.949553 0.383337
vt 0.971731 0.341844
vt 0.985388 0.296822
vt 0.990000 0.250000
vt 0.985388 0.203178
vt 0.971731 0.158156
vt 0.949553 0.116663
vt 0.919706 0.080294
vt 0.883337 0.050447
vt 0.841844 0.028269
vt 0.796822 0.014612
vt 0.750000 0.010000
vt 0.703178 0.014612
vt 0.658156 0.028269
vt 0.616663 0.050447
vt 0.580294 0.080294
vt 0.550447 0.116663
vt 0.528269 0.158156
vt 0.514612 0.203178
vt 0.510000 0.250000
vt 0.514612 0.296822
vt 0.528269 0.341844
vt 0.550447 0.383337
vt 0.580294 0.419706
vt 0.616663 0.449553
vt 0.658156 0.471731
vt 0.984375 0.500000
vt 0.984375 1.000000
vt 0.953125 0.500000
vt 0.953125 1.000000
vt 0.921875 0.500000
vt 0.921875 1.000000
vt 0.890625 0.500000
vt 0.890625 1.000000
vt 0.859375 1.000000
vt 0.859375 0.500000
vt 0.828125 1.000000
vt 0.828125 0.500000
vt 0.796875 1.000000
vt 0.796875 0.500000
vt 0.765625 1.000000
vt 0.765625 0.500000
vt 0.734375 1.000000
vt 0.734375 0.500000
vt 0.703125 1.000000
vt 0.703125 0.500000
vt 0.671875 1.000000
vt 0.671875 0.500000
vt 0.640625 0.500000
vt 0.640625 1.000000
vt 0.609375 1.000000
vt 0.609375 0.500000
vt 0.578125 1.000000
vt 0.578125 0.500000
vt 0.546875 1.000000
vt 0.546875 0.500000
vt 0.515625 1.000000
vt 0.515625 0.500000
vt 0.484375 1.000000
vt 0.484375 0.500000
vt 0.453125 1.000000
vt 0.453125 0.500000
vt 0.421875 1.000000
vt 0.421875 0.500000
vt 0.390625 0.500000
vt 0.390625 1.000000
vt 0.359375 0.500000
vt 0.359375 1.000000
vt 0.328125 0.500000
vt 0.328125 1.000000
vt 0.296875 0.500000
vt 0.296875 1.000000
vt 0.265625 0.500000
vt 0.265625 1.000000
vt 0.234375 0.500000
vt 0.234375 1.000000
vt 0.203125 0.500000
vt 0.203125 1.000000
vt 0.171875 0.500000
vt 0.171875 1.000000
vt 0.140625 0.500000
vt 0.140625 1.000000
vt 0.109375 0.500000
vt 0.109375 1.000000
vt 0.078125 0.500000
vt 0.078125 1.000000
vt 0.046875 0.500000
vt 0.046875 1.000000
vt 0.015625 0.500000
vt 0.015625 1.000000
vt 0.564478 0.402254
vt 0.538339 0.363135
vt 0.520334 0.319668
vt 0.511156 0.273524
vt 0.511156 0.226476
vt 0.520334 0.180332
vt 0.538339 0.136865
vt 0.564478 0.097746
vt 0.597746 0.064478
vt 0.636865 0.038339
vt 0.658156 0.028269
vt 0.680332 0.020334
vt 0.703178 0.014612
vt 0.726476 0.011156
vt 0.773524 0.011156
vt 0.796822 0.014612
vt 0.819668 0.020334
vt 0.841844 0.028269
vt 0.863135 0.038339
vt 0.902254 0.064478
vt 0.935522 0.097746
vt 0.961661 0.136865
vt 0.979666 0.180332
vt 0.988844 0.226476
vt 0.988844 0.273524
vt 0.979666 0.319668
vt 0.961661 0.363135
vt 0.935522 0.402254
vt 0.902254 0.435522
vt 0.863135 0.461661
vt 0.819668 0.479666
vt 0.773524 0.488844
vt 0.726476 0.488844
vt 0.680332 0.479666
vt 0.636865 0.461661
vt 0.597746 0.435522
s 0
f 1/1/1 3/2/1 7/3/1 5/4/1
f 5/4/2 7/3/2 11/5/2 9/6/2
f 9/6/3 11/5/3 15/7/3 13/8/3
f 13/8/4 15/7/4 19/9/4 17/10/4
f 17/10/5 19/9/5 23/11/5 21/12/5
f 21/12/6 23/11/6 27/13/6 26/14/6
f 26/14/7 27/13/7 31/15/7 30/16/7
f 30/16/8 31/15/8 35/17/8 34/18/8
f 34/18/9 35/17/9 39/19/9 37/20/9
f 37/20/10 39/19/10 43/21/10 41/22/10
f 41/22/11 43/21/11 48/23/11 45/24/11
f 45/24/12 48/23/12 52/25/12 49/26/12
f 49/26/13 52/25/13 55/27/13 54/28/13
f 54/28/14 55/27/14 60/29/14 57/30/14
f 57/30/15 60/29/15 64/31/15 61/32/15
f 61/32/16 64/31/16 68/33/16 65/34/16
f 65/34/17 68/33/17 72/35/17 70/36/17
f 70/36/18 72/35/18 76/37/18 74/38/18
f 74/38/19 76/37/19 80/39/19 78/40/19
f 78/40/20 80/39/20 84/41/20 82/42/20
f 82/42/21 84/41/21 88/43/21 86/44/21
f 86/44/22 88/43/22 91/45/22 90/46/22
f 90/46/23 91/45/23 96/47/23 93/48/23
f 93/48/24 96/47/24 100/49/24 98/50/24
f 98/50/25 100/49/25 103/51/25 101/52/25
f 101/52/26 103/51/26 108/53/26 105/54/26
f 105/54/27 108/53/27 112/55/27 109/56/27
f 109/56/28 112/55/28 116/57/28 113/58/28
f 113/58/29 116/57/29 120/59/29 117/60/29
f 117/60/30 120/59/30 124/61/30 121/62/30
f 186/63/31 124/64/31 120/65/31 116/66/31 112/67/31 108/68/31 103/69/31 100/70/31 96/71/31 91/72/31 88/73/31 84/74/31 80/75/31 76/76/31 72/77/31 68/78/31 64/79/31 60/80/31 55/81/31 52/82/31 48/83/31 43/84/31 39/85/31 35/86/31 31/87/31 27/88/31 23/89/31 19/90/31 15/91/31 11/92/31 20/93/31 24/94/31 28/95/31 32/96/31 36/97/31 40/98/31 44/99/31 47/100/31 51/101/31 56/102/31 59/103/31 63/104/31 67/105/31 71/106/31 75/107/31 79/108/31 83/109/31 87/110/31 92/111/31 95/112/31 99/113/31 104/114/31 107/115/31 111/116/31 115/117/31 119/118/31 123/119/31 128/120/31 130/121/31 132/122/31 134/123/31 136/124/31 138/125/31 140/126/31 142/127/31 144/128/31 146/129/31 148/130/31 150/131/31 152/132/31 154/133/31 156/134/31 158/135/31 160/136/31 162/137/31 164/138/31 166/139/31 168/140/31 170/141/31 172/142/31 174/143/31 176/144/31 178/145/31 180/146/31 182/147/31 184/148/31
f 16/149/31 20/93/31 11/92/31 7/150/31 3/151/31 127/152/31 124/64/31 186/63/31 188/153/31 190/154/31 192/155/31 4/156/31 8/157/31 12/158/31
f 121/62/32 124/61/32 127/159/32 125/160/32
f 125/160/33 127/159/33 3/161/33 1/162/33
f 125/163/34 1/164/34 5/165/34 9/166/34 13/167/34 17/168/34 21/169/34 26/170/34 30/171/34 34/172/34 37/173/34 41/174/34 45/175/34 49/176/34 54/177/34 57/178/34 61/179/34 65/180/34 70/181/34 74/182/34 78/183/34 82/184/34 86/185/34 90/186/34 93/187/34 98/188/34 101/189/34 105/190/34 109/191/34 113/192/34 117/193/34 121/194/34
f 4/2/35 2/1/35 6/195/35 8/196/35
f 8/196/36 6/195/36 10/4/36 12/3/36
f 12/3/37 10/4/37 14/197/37 16/198/37
f 16/198/38 14/197/38 18/6/38 20/5/38
f 20/5/39 18/6/39 22/199/39 24/200/39
f 24/200/40 22/199/40 25/8/40 28/7/40
f 28/7/41 25/8/41 29/201/41 32/202/41
f 32/202/42 29/201/42 33/10/42 36/9/42
f 40/203/43 36/9/43 33/10/43 38/204/43
f 44/11/44 40/203/44 38/204/44 42/12/44
f 47/205/45 44/11/45 42/12/45 46/206/45
f 51/13/46 47/205/46 46/206/46 50/14/46
f 56/207/47 51/13/47 50/14/47 53/208/47
f 59/15/48 56/207/48 53/208/48 58/16/48
f 63/209/49 59/15/49 58/16/49 62/210/49
f 67/17/50 63/209/50 62/210/50 66/18/50
f 71/211/51 67/17/51 66/18/51 69/212/51
f 69/212/52 73/20/52 75/19/52 71/211/52
f 79/213/53 75/19/53 73/20/53 77/214/53
f 83/21/54 79/213/54 77/214/54 81/22/54
f 87/215/55 83/21/55 81/22/55 85/216/55
f 92/23/56 87/215/56 85/216/56 89/24/56
f 89/24/57 94/217/57 95/218/57 92/23/57
f 99/25/58 95/218/58 94/217/58 97/26/58
f 104/219/59 99/25/59 97/26/59 102/220/59
f 107/27/60 104/219/60 102/220/60 106/28/60
f 111/221/61 107/27/61 106/28/61 110/222/61
f 115/29/62 111/221/62 110/222/62 114/30/62
f 119/223/63 115/29/63 114/30/63 118/224/63
f 123/31/64 119/223/64 118/224/64 122/32/64
f 128/225/65 123/31/65 122/32/65 126/226/65
f 130/33/66 128/225/66 126/226/66 129/34/66
f 132/227/67 130/33/67 129/34/67 131/228/67
f 131/228/68 133/36/68 134/35/68 132/227/68
f 136/229/69 134/35/69 133/36/69 135/230/69
f 138/37/70 136/229/70 135/230/70 137/38/70
f 140/231/71 138/37/71 137/38/71 139/232/71
f 142/39/72 140/231/72 139/232/72 141/40/72
f 141/40/73 143/233/73 144/234/73 142/39/73
f 146/41/74 144/234/74 143/233/74 145/42/74
f 146/41/75 145/42/75 147/235/75 148/236/75
f 148/236/76 147/235/76 149/44/76 150/43/76
f 150/43/77 149/44/77 151/237/77 152/238/77
f 152/238/78 151/237/78 153/46/78 154/45/78
f 154/45/79 153/46/79 155/239/79 156/240/79
f 156/240/80 155/239/80 157/48/80 158/47/80
f 158/47/81 157/48/81 159/241/81 160/242/81
f 160/242/82 159/241/82 161/50/82 162/49/82
f 162/49/83 161/50/83 163/243/83 164/244/83
f 164/244/84 163/243/84 165/52/84 166/51/84
f 166/51/85 165/52/85 167/245/85 168/246/85
f 168/246/86 167/245/86 169/54/86 170/53/86
f 170/53/87 169/54/87 171/247/87 172/248/87
f 172/248/88 171/247/88 173/56/88 174/55/88
f 174/55/89 173/56/89 175/249/89 176/250/89
f 176/250/90 175/249/90 177/58/90 178/57/90
f 178/57/91 177/58/91 179/251/91 180/252/91
f 180/252/92 179/251/92 181/60/92 182/59/92
f 182/59/93 181/60/93 183/253/93 184/254/93
f 184/254/94 183/253/94 185/62/94 186/61/94
f 186/61/95 185/62/95 187/255/95 188/256/95
f 188/256/96 187/255/96 189/160/96 190/159/96
f 190/159/97 189/160/97 191/257/97 192/258/97
f 191/257/98 2/162/98 4/161/98 192/258/98
f 175/259/31 173/191/31 171/260/31 169/190/31 167/261/31 165/189/31 163/262/31 161/188/31 159/263/31 157/187/31 155/264/31 153/186/31 151/265/31 149/185/31 147/266/31 145/184/31 143/267/31 141/183/31 139/268/31 137/269/31 135/270/31 133/271/31 131/272/31 129/180/31 126/273/31 122/274/31 118/275/31 114/276/31 110/277/31 106/177/31 102/278/31 97/176/31 94/279/31 89/175/31 85/280/31 81/174/31 77/281/31 73/173/31 69/282/31 66/172/31 62/283/31 58/171/31 53/284/31 50/170/31 46/285/31 42/169/31 38/286/31 33/168/31 29/287/31 25/167/31 22/288/31 18/166/31 14/289/31 10/165/31 6/290/31 2/164/31 191/291/31 189/163/31 187/292/31 185/194/31 183/293/31 181/193/31 179/294/31 177/192/31
